<svg xmlns="http://www.w3.org/2000/svg" xmlns:xlink="http://www.w3.org/1999/xlink" width="64" height="64" viewBox="0 0 64 64">
  <defs>
    <style>
      .cls-1 {
        clip-path: url(#clip-favicon);
      }

      .cls-2 {
        fill: #fff;
        font-size: 6px;
        font-family: Roboto-Regular, Roboto;
      }

      .cls-3 {
        fill: none;
        stroke: #fff;
        stroke-linecap: round;
        stroke-linejoin: round;
        fill-rule: evenodd;
      }

      .cls-4 {
        fill: #f7fff7;
      }

      .cls-5 {
        fill: #27c1b1;
      }
    </style>
    <clipPath id="clip-favicon">
      <rect width="64" height="64"/>
    </clipPath>
  </defs>
  <g id="favicon" class="cls-1">
    <rect class="cls-5" width="64" height="64"/>
    <g id="ParkGis_splashscreen" transform="translate(-81 -252)">
      <text id="ParkGIS" class="cls-2" transform="translate(99.906 303.849)"><tspan x="0" y="0">ParkGIS</tspan></text>
      <g id="Grupo_1217" data-name="Grupo 1217" transform="translate(90 262)">
        <g id="noun_Park_1657688_1_" data-name="noun_Park_1657688 (1)" transform="translate(0 0)">
          <g id="Grupo_1113" data-name="Grupo 1113" transform="translate(0 0)">
            <g id="Grupo_1112" data-name="Grupo 1112" transform="translate(0)">
              <path id="Trazado_24" data-name="Trazado 24" class="cls-3" d="M34.872,58H1" transform="translate(-0.999 -24.128)"/>
              <path id="Trazado_25" data-name="Trazado 25" class="cls-3" d="M18.336,46.81v6.535H16V46.81" transform="translate(-7.24 -19.473)"/>
              <path id="Trazado_26" data-name="Trazado 26" class="cls-3" d="M17.144,20.338a4.765,4.765,0,0,0,1.421-3.409,4.651,4.651,0,0,0-4.582-4.717h-.018a3.97,3.97,0,0,0,.782-2.359,3.876,3.876,0,0,0-3.818-3.931A3.876,3.876,0,0,0,7.109,9.854a3.97,3.97,0,0,0,.782,2.359H7.873a4.651,4.651,0,0,0-4.582,4.717,4.765,4.765,0,0,0,1.421,3.409A5.489,5.489,0,0,0,1,25.577a5.426,5.426,0,0,0,5.346,5.5A5.31,5.31,0,0,0,10.928,28.4,5.31,5.31,0,0,0,15.51,31.08a5.426,5.426,0,0,0,5.346-5.5A5.489,5.489,0,0,0,17.144,20.338Z" transform="translate(-0.999 -2.464)"/>
              <path id="Trazado_27" data-name="Trazado 27" class="cls-3" d="M37,45H49.848" transform="translate(-15.976 -18.72)"/>
              <path id="Trazado_28" data-name="Trazado 28" class="cls-3" d="M37,50H49.848" transform="translate(-15.976 -20.8)"/>
              <path id="Trazado_29" data-name="Trazado 29" class="cls-3" d="M37,53H49.848" transform="translate(-15.976 -22.048)"/>
              <path id="Trazado_30" data-name="Trazado 30" class="cls-3" d="M39,44v8.176" transform="translate(-16.808 -18.304)"/>
              <path id="Trazado_31" data-name="Trazado 31" class="cls-3" d="M57,44v8.176" transform="translate(-24.296 -18.304)"/>
              <path id="Trazado_32" data-name="Trazado 32" class="cls-3" d="M41.336,17.176a2.336,2.336,0,1,1,0-4.672,3.5,3.5,0,1,1,7.008,0,2.336,2.336,0,1,1,0,4.672Z" transform="translate(-16.808 -3.744)"/>
              <path id="Trazado_33" data-name="Trazado 33" class="cls-3" d="M10.373,3.5h-.029a3.5,3.5,0,1,0-7.008,0,2.336,2.336,0,1,0,0,4.672H7.19" transform="translate(-0.999 0)"/>
              <path id="Trazado_34" data-name="Trazado 34" class="cls-3" d="M18,35.68V24" transform="translate(-8.072 -9.984)"/>
              <path id="Trazado_35" data-name="Trazado 35" class="cls-3" d="M13,26l2.92,2.92L18.84,26" transform="translate(-5.991 -10.816)"/>
              <path id="Trazado_36" data-name="Trazado 36" class="cls-3" d="M11,37l4.088,4.088" transform="translate(-5.159 -15.392)"/>
              <path id="Trazado_37" data-name="Trazado 37" class="cls-3" d="M22.088,37,18,41.088" transform="translate(-8.072 -15.392)"/>
            </g>
          </g>
        </g>
        <g id="Grupo_1110" data-name="Grupo 1110" transform="translate(34.669 17.99)">
          <path id="Trazado_23" data-name="Trazado 23" class="cls-4" d="M62.984,0h0a5.728,5.728,0,0,0-5.735,5.735,6.236,6.236,0,0,0,.845,3.031l3.738,6.469a1.31,1.31,0,0,0,1.152.634,1.337,1.337,0,0,0,1.152-.634L67.874,8.77a6.137,6.137,0,0,0,.845-3.031A5.731,5.731,0,0,0,62.984,0Zm0,7.429a2.093,2.093,0,1,1,2.093-2.093A2.1,2.1,0,0,1,62.984,7.429Z" transform="translate(-57.249 0)"/>
        </g>
      </g>
    </g>
  </g>
</svg>
